<svg width="20" height="16" viewBox="0 0 20 16" fill="none" xmlns="http://www.w3.org/2000/svg">
<path d="M17.612 2.32611C17.1722 1.90569 16.65 1.57219 16.0752 1.34465C15.5005 1.11711 14.8844 1 14.2623 1C13.6401 1 13.0241 1.11711 12.4493 1.34465C11.8746 1.57219 11.3524 1.90569 10.9126 2.32611V2.32611C10.4018 2.81405 9.59769 2.81405 9.08699 2.32611V2.32611C8.19858 1.4773 6.99364 1.00044 5.73725 1.00044C4.48085 1.00044 3.27591 1.4773 2.38751 2.32611C1.4991 3.17492 1 4.32616 1 5.52656C1 6.72696 1.4991 7.87819 2.38751 8.727L7.92734 14.0199C9.08687 15.1278 10.9127 15.1278 12.0722 14.0199L17.612 8.727C18.0521 8.30679 18.4011 7.80785 18.6393 7.25871C18.8774 6.70957 19 6.12097 19 5.52656C19 4.93214 18.8774 4.34355 18.6393 3.7944C18.4011 3.24526 18.0521 2.74633 17.612 2.32611Z" stroke="#9C9C9C" stroke-width="2" stroke-miterlimit="16"/>
</svg>
