<svg width="299" height="53" viewBox="0 0 299 53" fill="none" xmlns="http://www.w3.org/2000/svg">
<path d="M31.1399 22.0735L50.3337 2.26056H0C0 15.3964 8.49821 26.5436 20.2937 30.5183L1.09991 50.3337H51.4336C51.4336 37.1979 42.9354 26.0507 31.1399 22.076V22.0735Z" fill="#E0FF04"/>
<path d="M58.6113 1.44714V52.5141C70.1786 52.5141 86.1552 48.3087 86.3543 29.5617C86.551 48.3087 102.53 52.5141 114.097 52.5141V1.44714L86.3543 29.2072L58.6113 1.44714Z" fill="#E0FF04"/>
<path d="M147.839 26.2303V26.223C161.087 26.1575 171.804 15.4012 171.804 2.1391H121.466V50.3142H171.804C171.804 37.0522 161.087 26.2959 147.839 26.2303Z" fill="#E0FF04"/>
<path d="M51.4245 0H0.0175781V3.7902H46.9835L0.0175781 47.7284V52.4534H51.4245V48.6632H4.45607L51.4245 4.725V0Z" fill="#1F422B"/>
<path d="M111.873 0L86.3519 25.7811L60.833 0H56.5693V52.4534H60.3595V5.10378L86.4758 30.4794L112.347 5.10378V52.4534H116.137V0H111.873Z" fill="#1F422B"/>
<path d="M171.805 3.7902V0H120.549V52.4631H171.805V48.6729H124.339V28.0028H150.458V24.2126H124.339V3.7902H171.805Z" fill="#1F422B"/>
<path d="M195.627 2.91533H204.093L195.627 12.0341V13.6923H206.947V11.7871H198.617L206.947 2.68711V1H195.627V2.91533Z" fill="#1F422B"/>
<path d="M221.169 13.6937V1.0014H219.018V6.20429H211.517V1.0014H209.357V13.6937H211.517V8.23663H219.018V13.6937H221.169Z" fill="#1F422B"/>
<path d="M234.34 11.8058H225.443V8.15429H233.339V6.25918H225.443V2.89651H234.199V1.0014H223.43V13.6937H234.34V11.8058Z" fill="#1F422B"/>
<path d="M197.641 23.7414H205.536V21.8448H197.641V18.4836H206.397V16.587H195.627V29.2794H206.537V27.3929H197.641V23.7414Z" fill="#1F422B"/>
<path d="M293.124 11.8058H284.227V8.15429H292.123V6.25918H284.227V2.89651H292.984V1.0014H282.214V13.6937H293.124V11.8058Z" fill="#1F422B"/>
<path d="M238.819 4.34818L246.445 13.6937H248.772V1.0014H246.611V10.5838L238.949 1.0014H236.659V13.6937H238.819V4.34818Z" fill="#1F422B"/>
<path d="M295.617 26.025L288.754 16.587H286.465V29.2794H288.698V20.0797L295.523 29.2794H297.85V16.587H295.617V26.025Z" fill="#1F422B"/>
<path d="M272.428 13.6937L277.719 5.09496V13.6937H279.868V1.0014H277.691L272.223 10.0494L266.735 1.0014H264.547V13.6937H266.708V5.10507L272.026 13.6937H272.428Z" fill="#1F422B"/>
<path d="M297.85 1.0014H295.617V13.6937H297.85V1.0014Z" fill="#1F422B"/>
<path d="M212.583 16.587H207.584V29.2794H212.583C216.631 29.2794 218.995 26.8585 218.995 22.9238C218.995 18.9891 216.677 16.587 212.583 16.587ZM212.183 27.3424H209.722V18.5746H212.183C215.357 18.5746 216.828 20.1577 216.828 22.9484C216.828 25.739 215.388 27.3424 212.183 27.3424Z" fill="#1F422B"/>
<path d="M229.164 24.6051C229.164 26.3442 227.659 27.4218 225.836 27.4218C224.126 27.4218 222.526 26.4193 222.526 24.6051V16.5856H220.303V24.7727C220.303 27.9692 222.696 29.4657 225.836 29.4657C228.743 29.4657 231.387 28.0819 231.387 24.7727V16.5856H229.164V24.6051Z" fill="#1F422B"/>
<path d="M240.044 18.4459C241.492 18.4459 243.047 18.9269 243.86 19.3198L243.918 17.2312C242.927 16.7733 241.352 16.3992 239.818 16.3992C235.771 16.3992 232.52 18.8302 232.52 22.9324C232.52 27.0346 235.585 29.4656 239.651 29.4656C241.595 29.4656 242.843 29.0265 243.918 28.5123L243.86 26.4525C242.944 27.0043 241.427 27.4766 239.997 27.4766C237.166 27.4766 234.857 25.4934 234.857 22.9136C234.857 20.1937 237.335 18.4459 240.045 18.4459H240.044Z" fill="#1F422B"/>
<path d="M249.735 16.587L244.613 29.2794H246.87L247.959 26.7935H254.428L255.509 29.2794H257.764L252.633 16.587H249.735ZM248.669 24.7843L251.194 18.641L253.7 24.7843H248.669Z" fill="#1F422B"/>
<path d="M256.189 18.5399H260.308V29.2794H262.531V18.5399H266.639V16.587H256.189V18.5399Z" fill="#1F422B"/>
<path d="M270.341 16.587H268.107V29.2794H270.341V16.587Z" fill="#1F422B"/>
<path d="M278.424 16.4007C274.517 16.4007 271.713 19.1206 271.713 22.9614C271.713 26.8021 274.517 29.4657 278.424 29.4657C282.331 29.4657 285.143 26.792 285.143 22.9614C285.143 19.1307 282.348 16.4007 278.424 16.4007ZM278.434 27.4204C275.809 27.4204 274.017 25.6177 274.017 22.9527C274.017 20.2877 275.809 18.4561 278.434 18.4561C281.058 18.4561 282.851 20.3094 282.851 22.9527C282.851 25.596 281.079 27.4204 278.434 27.4204Z" fill="#1F422B"/>
<path d="M235.169 43.9433H246.932V42.0627H235.497L235.709 40.8435H245.489V38.9629H236.038L236.258 37.7091H246.932V35.8284H222.718V37.7091H234.376L234.156 38.9629H224.159V40.8435H233.827L233.614 42.0627H222.716V43.9433H233.285L233.054 45.265H222.115V47.1457H232.452C230.63 49.9334 222.673 50.5502 222.673 50.5502L223.161 52.3269C223.161 52.3269 233.237 51.7491 234.507 47.1457H235.14C236.184 51.9903 246.453 52.3269 246.453 52.3269L247.085 50.6224C247.085 50.6224 238.819 50.4751 237.039 47.1457H247.53V45.265H234.936L235.167 43.9433H235.169Z" fill="#1F422B"/>
<path d="M232.006 33.7239L226.922 32.525L226.361 34.345L231.446 35.5439L232.006 33.7239Z" fill="#1F422B"/>
<path d="M243.308 34.345L242.748 32.525L237.663 33.7239L238.224 35.5439L243.308 34.345Z" fill="#1F422B"/>
<path d="M195.953 50.5083L196.441 52.3283L204.858 50.5704L204.371 48.7504L195.953 50.5083Z" fill="#1F422B"/>
<path d="M210.544 50.5704L218.961 52.3283L219.449 50.5083L211.031 48.7504L210.544 50.5704Z" fill="#1F422B"/>
<path d="M217.119 36.9118H208.556L208.731 35.7808H219.805V33.9001H209.021L209.238 32.4961H207.357L207.141 33.9001H195.592V35.7808H206.85L206.675 36.9118H198.819V46.6415H195V48.5222H220.399V46.6415H217.12V36.9118H217.119ZM215.238 43.4537H200.701V42.0742H215.238V43.4537ZM215.238 38.7939V40.1935H200.701V38.7939H215.238ZM200.701 45.3343H215.238V46.6415H200.701V45.3343Z" fill="#1F422B"/>
<path d="M261.411 47.1355V45.2548L257.826 45.7488V43.7829H260.051V41.9023H255.966C257.036 41.2162 258.122 40.4275 259.135 39.5377H261.603V37.6571H261.001C261.852 36.6633 262.577 35.5785 263.084 34.4013L261.605 33.5433C261.218 34.4576 260.644 35.3301 259.952 36.1519V34.3377H256.07V32.4975H254.189V34.3377H250.306V36.2184H254.189V37.6571H248.655V39.5377H256.178C252.529 42.1536 248.562 43.7411 248.562 43.7411L249.264 45.2577C249.264 45.2577 250.685 44.7565 252.639 43.7829H255.944V46.0088L249.301 46.9246V48.8053L255.944 47.8895C255.944 50.0432 253.539 50.5444 250.006 50.5444L250.636 52.2604C254.988 52.2604 257.825 51.4139 257.825 48.3055V47.6309L261.41 47.1369L261.411 47.1355ZM256.073 37.6556V36.2169H259.9C259.476 36.7153 259.008 37.1963 258.511 37.6556H256.073Z" fill="#1F422B"/>
<path d="M268.732 46.5434C271.054 43.3208 271.79 39.1926 271.96 37.9981H273.601V36.1174H266.25C266.516 35.3981 266.773 34.6253 267.011 33.7991L265.258 33.0335C263.889 38.6697 260.549 42.5365 260.549 42.5365L261.95 43.6791C261.95 43.6791 262.524 43.0984 263.331 41.9082C263.964 43.2992 264.946 44.8837 266.132 46.3961C263.952 48.5078 261.102 49.8468 258.212 50.3654L258.873 52.3168C261.59 51.9702 265.298 49.9884 267.468 47.9676C269.302 49.961 271.431 51.6307 273.459 52.2489L274.512 50.5113C272.278 49.7703 270.329 48.2753 268.733 46.5448L268.732 46.5434ZM265.482 37.9981H269.83C269.698 39.1912 269.188 42.4903 267.404 44.9545C266.078 43.2009 265.098 41.3737 264.528 39.9307C264.842 39.3558 265.163 38.7102 265.482 37.9981Z" fill="#1F422B"/>
<path d="M299 35.6624H288.373L289.006 33.9175L283.921 32.6464L283.289 34.4664L288.367 35.6638H274.785V37.5445H281.697C280.622 38.1006 279.004 38.7506 277.07 38.9239L277.401 40.6399H296.179L298.231 41.2986L298.864 39.4295L292.989 37.5445H298.998V35.6638L299 35.6624ZM292.285 38.9759H282.48C282.48 38.9759 283.741 38.4429 285.055 37.5445H292.768L292.283 38.9759H292.285Z" fill="#1F422B"/>
<path d="M294.401 41.274H279.864H277.983V52.3861H279.864V49.0754H294.401V49.2589C294.401 50.5964 292.142 50.7134 288.609 50.7134L289.093 52.5017C293.445 52.5017 296.282 52.2489 296.282 49.4582V41.2754H294.4L294.401 41.274ZM294.401 43.1547V44.2929H279.864V43.1547H294.401ZM279.864 47.1933V46.1735H294.401V47.1933H279.864Z" fill="#1F422B"/>
</svg>
