<svg width="290" height="89" viewBox="0 0 290 89" fill="none" xmlns="http://www.w3.org/2000/svg">
<path d="M52.4851 37.2041L84.8356 3.81006H0C0 25.95 14.3234 44.7382 34.2044 51.4375L1.85386 84.8357H86.6895C86.6895 62.6957 72.3661 43.9075 52.4851 37.2082V37.2041Z" fill="#80CCBF"/>
<path d="M98.7871 2.43945V88.511C118.283 88.511 145.211 81.423 145.547 49.8255C145.878 81.423 172.811 88.511 192.307 88.511V2.43945L145.547 49.228L98.7871 2.43945Z" fill="#80CCBF"/>
<path d="M249.178 44.2099V44.1976C271.507 44.0871 289.57 25.9577 289.57 3.60498H204.727V84.8025H289.57C289.57 62.4497 271.507 44.3204 249.178 44.2099Z" fill="#80CCBF"/>
<path d="M86.6738 0H0.0292969V6.38825H79.1888L0.0292969 80.4445V88.4083H86.6738V82.0201H7.51022L86.6738 7.96383V0Z" fill="white"/>
<path d="M188.559 0L145.543 43.4532L102.532 0H95.3457V88.4083H101.734V8.60224L145.752 51.372L189.357 8.60224V88.4083H195.745V0H188.559Z" fill="white"/>
<path d="M289.571 6.38825V0H203.181V88.4247H289.571V82.0364H209.569V47.1978H253.591V40.8095H209.569V6.38825H289.571Z" fill="white"/>
</svg>
